<svg width="40" height="41" viewBox="0 0 40 41" fill="none" xmlns="http://www.w3.org/2000/svg">
<circle cx="20" cy="20.5" r="20" fill="white"/>
<path d="M18.3027 26.5231C18.7193 26.435 21.2578 26.435 21.6743 26.5231C22.0305 26.6053 22.4156 26.7975 22.4156 27.2172C22.3949 27.6167 22.1605 27.9709 21.8367 28.1958C21.4168 28.5232 20.924 28.7305 20.4088 28.8052C20.1239 28.8421 19.844 28.8429 19.569 28.8052C19.053 28.7305 18.5602 28.5232 18.1412 28.195C17.8165 27.9709 17.5821 27.6167 17.5614 27.2172C17.5614 26.7975 17.9465 26.6053 18.3027 26.5231ZM20.0377 12.1665C21.7712 12.1665 23.5419 12.989 24.5937 14.3537C25.2762 15.2325 25.5892 16.1104 25.5892 17.4751V17.8301C25.5892 18.8767 25.8659 19.4936 26.4746 20.2045C26.9359 20.7282 27.0834 21.4005 27.0834 22.1299C27.0834 22.8584 26.844 23.55 26.3645 24.1114C25.7367 24.7846 24.8513 25.2143 23.9477 25.289C22.6383 25.4006 21.3281 25.4946 20.0004 25.4946C18.672 25.4946 17.3626 25.4384 16.0531 25.289C15.1487 25.2143 14.2634 24.7846 13.6364 24.1114C13.1569 23.55 12.9167 22.8584 12.9167 22.1299C12.9167 21.4005 13.0649 20.7282 13.5254 20.2045C14.1532 19.4936 14.4116 18.8767 14.4116 17.8301V17.4751C14.4116 16.0735 14.7611 15.1569 15.4808 14.2597C16.5509 12.9513 18.2661 12.1665 19.9632 12.1665H20.0377Z" fill="#2D416F"/>
<circle cx="25" cy="14.5" r="2.5" fill="#E05453" stroke="white"/>
</svg>
