<svg width="16" height="17" viewBox="0 0 16 17" fill="none" xmlns="http://www.w3.org/2000/svg">
<path d="M10.8125 11.1875L11.75 11.1875L11.75 10.25C11.75 9.91848 11.6183 9.60054 11.3839 9.36612C11.1495 9.1317 10.8315 9 10.5 9L5.5 9C5.16848 9 4.85054 9.1317 4.61612 9.36612C4.3817 9.60054 4.25 9.91848 4.25 10.25L4.25 11.1875L5.1875 11.1875C5.51902 11.1875 5.83696 11.3192 6.07138 11.5536C6.3058 11.788 6.4375 12.106 6.4375 12.4375L6.4375 15.5625C6.4375 15.894 6.3058 16.212 6.07138 16.4464C5.83696 16.6808 5.51902 16.8125 5.1875 16.8125L2.0625 16.8125C1.73098 16.8125 1.41304 16.6808 1.17862 16.4464C0.944196 16.212 0.812499 15.894 0.812499 15.5625L0.812499 12.4375C0.812499 12.106 0.944196 11.788 1.17862 11.5536C1.41304 11.3192 1.73098 11.1875 2.0625 11.1875L3 11.1875L3 10.25C3.00206 9.58759 3.26611 8.9529 3.73451 8.48451C4.2029 8.01611 4.83759 7.75206 5.5 7.75L7.375 7.75L7.375 5.5625L6.75 5.5625C6.41848 5.5625 6.10054 5.4308 5.86612 5.19638C5.6317 4.96196 5.5 4.64402 5.5 4.3125L5.5 1.8125C5.5 1.48098 5.6317 1.16304 5.86612 0.928616C6.10054 0.694196 6.41848 0.5625 6.75 0.5625L9.25 0.5625C9.58152 0.5625 9.89946 0.694196 10.1339 0.928616C10.3683 1.16304 10.5 1.48098 10.5 1.8125L10.5 4.3125C10.5 4.64402 10.3683 4.96196 10.1339 5.19638C9.89946 5.4308 9.58152 5.5625 9.25 5.5625L8.625 5.5625L8.625 7.75L10.5 7.75C11.1624 7.75206 11.7971 8.01611 12.2655 8.48451C12.7339 8.9529 12.9979 9.58759 13 10.25L13 11.1875L13.9375 11.1875C14.269 11.1875 14.587 11.3192 14.8214 11.5536C15.0558 11.788 15.1875 12.106 15.1875 12.4375L15.1875 15.5625C15.1875 15.894 15.0558 16.212 14.8214 16.4464C14.587 16.6808 14.269 16.8125 13.9375 16.8125L10.8125 16.8125C10.481 16.8125 10.163 16.6808 9.92862 16.4464C9.6942 16.212 9.5625 15.894 9.5625 15.5625L9.5625 12.4375C9.5625 12.106 9.6942 11.788 9.92862 11.5536C10.163 11.3192 10.481 11.1875 10.8125 11.1875Z" fill="#818DA9"/>
</svg>
