<svg width="80" height="80" viewBox="0 0 80 80" fill="none" xmlns="http://www.w3.org/2000/svg">
<g filter="url(#filter0_d_994_6842)">
<circle cx="39" cy="39" r="39" fill="white"/>
</g>
<circle cx="39" cy="39" r="34.125" fill="#C8DEC4"/>
<path fill-rule="evenodd" clip-rule="evenodd" d="M64.1703 62.0431C69.7315 55.9718 73.125 47.8822 73.125 39C73.125 29.7908 69.4771 21.4337 63.5475 15.2947C62.9874 15.2547 62.4218 15.2344 61.8516 15.2344C48.8944 15.2344 38.3906 25.7382 38.3906 38.6953C38.3906 51.6524 48.8944 62.1562 61.8516 62.1562C62.634 62.1562 63.4075 62.1179 64.1703 62.0431Z" fill="#9AC693"/>
<path fill-rule="evenodd" clip-rule="evenodd" d="M70.4296 52.3153C72.1651 48.224 73.125 43.7241 73.125 39C73.125 34.2759 72.1651 29.776 70.4296 25.6847C69.9146 25.6246 69.3906 25.5938 68.8594 25.5938C61.4553 25.5938 55.4531 31.5959 55.4531 39C55.4531 46.4041 61.4553 52.4062 68.8594 52.4062C69.3906 52.4062 69.9146 52.3754 70.4296 52.3153Z" fill="#128100"/>
<path d="M48.75 31.6875L35.3438 45.0938L29.25 39" stroke="white" stroke-width="4" stroke-linecap="round" stroke-linejoin="round"/>
<defs>
<filter id="filter0_d_994_6842" x="0" y="0" width="80" height="80" filterUnits="userSpaceOnUse" color-interpolation-filters="sRGB">
<feFlood flood-opacity="0" result="BackgroundImageFix"/>
<feColorMatrix in="SourceAlpha" type="matrix" values="0 0 0 0 0 0 0 0 0 0 0 0 0 0 0 0 0 0 127 0" result="hardAlpha"/>
<feOffset dx="2" dy="2"/>
<feComposite in2="hardAlpha" operator="out"/>
<feColorMatrix type="matrix" values="0 0 0 0 0 0 0 0 0 0 0 0 0 0 0 0 0 0 0.05 0"/>
<feBlend mode="normal" in2="BackgroundImageFix" result="effect1_dropShadow_994_6842"/>
<feBlend mode="normal" in="SourceGraphic" in2="effect1_dropShadow_994_6842" result="shape"/>
</filter>
</defs>
</svg>
